  0
SECTION
  2
HEADER
  9
$ACADVER
  1
AC1009
  9
$EXTMIN
 10
0.0000
 20
0.0000
 30
0.0000
  9
$EXTMAX
 10
0.0000
 20
0.0000
 30
0.0000
  9
$LIMMIN
 10
0.0000
 20
0.0000
  9
$LIMMAX
 10
0.0000
 20
0.0000
  9
$LTSCALE
 40
0.100000
  9
$ATTMODE
 70
1
  9
$FILLMODE
 70
1
  9
$TEXTSIZE
 40
0.200000
  9
$TEXTSTYLE
  7
STANDARD
  9
$CELTYPE
  6
BYLAYER
  9
$PLINEGEN
 70
1
  9
$CECOLOR
 62
0
  9
$LUNITS
 70
2
  9
$LUPREC
 70
3
  9
$AUPREC
 70
4
  9
$ANGBASE
 50
0.000000
  9
$ANGDIR
 70
0
  9
$PDMODE
 70
2
  9
$PDSIZE
 40
0.100000
  9
$PLINEGEN
 70
1
  9
$MEASUREMENT
 70
1
  0
ENDSEC
  0
SECTION
  2
TABLES
  0
TABLE
  2
LTYPE
 70
5
  0
LTYPE
  2
Solid_Line
 70
0
  3
Solid Line
 72
65
 73
0
 40
0.0
  0
LTYPE
  2
Dashed_Line
 70
0
  3
Dashed Line
 72
65
 73
2
 40
0.75
 49
0.50
 49
-0.25
  0
LTYPE
  2
Dotted_Line
 70
0
  3
Dotted Line
 72
65
 73
2
 40
0.25
 49
0.00
 49
-0.25
  0
LTYPE
  2
DashDot_Line
 70
0
  3
DashDot Line
 72
65
 73
4
 40
18.0
 49
12.0
 49
-3.0
 49
0.0
 49
-3.0
  0
LTYPE
  2
DashDotDot_Line
 70
0
  3
DashDotDot Line
 72
65
 73
6
 40
21.0
 49
12.0
 49
-3.0
 49
0.0 
 49
-3.0
 49
0.0 
 49
-3.0
  0
ENDTAB
  0
TABLE
  2
APPID
 70
2
  0
APPID
  2
PE_URL
 70
0
  0
ENDTAB
  0
ENDSEC
  0
SECTION
  2
BLOCKS
  0
ENDSEC
  0
SECTION
  2
ENTITIES
  0
POINT
  8
0
 62
0
  6
Solid_Line
 10
320442.6931
 20
5814998.0884
 30
46.1371
  0
POINT
  8
0
 62
0
  6
Solid_Line
 10
320442.8671
 20
5815001.5091
 30
46.1733
  0
POINT
  8
0
 62
0
  6
Solid_Line
 10
320438.2732
 20
5815007.6894
 30
46.2596
  0
POINT
  8
0
 62
0
  6
Solid_Line
 10
320442.0104
 20
5815043.7529
 30
46.4138
  0
POINT
  8
0
 62
0
  6
Solid_Line
 10
320441.1435
 20
5815034.5388
 30
46.4599
  0
POINT
  8
0
 62
0
  6
Solid_Line
 10
320437.2188
 20
5815015.9401
 30
46.3383
  0
POINT
  8
0
 62
0
  6
Solid_Line
 10
320451.9844
 20
5814987.2087
 30
46.4064
  0
POINT
  8
0
 62
0
  6
Solid_Line
 10
320421.4643
 20
5814992.5059
 30
44.5330
  0
POINT
  8
0
 62
0
  6
Solid_Line
 10
320443.0552
 20
5815015.2276
 30
46.4118
  0
POINT
  8
0
 62
0
  6
Solid_Line
 10
320452.8482
 20
5815009.4793
 30
46.1353
  0
POINT
  8
0
 62
0
  6
Solid_Line
 10
320454.6301
 20
5815007.8803
 30
46.1203
  0
POINT
  8
0
 62
0
  6
Solid_Line
 10
320455.8864
 20
5815001.1530
 30
46.1635
  0
POINT
  8
0
 62
0
  6
Solid_Line
 10
320455.8722
 20
5814999.7323
 30
46.2393
  0
POINT
  8
0
 62
0
  6
Solid_Line
 10
320456.3476
 20
5814997.4604
 30
46.2563
  0
POINT
  8
0
 62
0
  6
Solid_Line
 10
320456.5742
 20
5814994.8013
 30
46.2485
  0
POINT
  8
0
 62
0
  6
Solid_Line
 10
320456.0134
 20
5814992.5661
 30
46.2569
  0
POINT
  8
0
 62
0
  6
Solid_Line
 10
320453.4555
 20
5814991.8255
 30
46.2355
  0
POINT
  8
0
 62
0
  6
Solid_Line
 10
320451.4583
 20
5814993.1943
 30
46.1947
  0
POINT
  8
0
 62
0
  6
Solid_Line
 10
320452.5583
 20
5814996.1749
 30
46.1840
  0
POINT
  8
0
 62
0
  6
Solid_Line
 10
320452.7340
 20
5814999.1613
 30
46.2240
  0
POINT
  8
0
 62
0
  6
Solid_Line
 10
320451.4769
 20
5815001.8164
 30
46.2310
  0
POINT
  8
0
 62
0
  6
Solid_Line
 10
320449.9806
 20
5815004.6669
 30
46.2220
  0
POINT
  8
0
 62
0
  6
Solid_Line
 10
320449.6704
 20
5815007.4337
 30
46.2378
  0
POINT
  8
0
 62
0
  6
Solid_Line
 10
320450.5871
 20
5815009.6754
 30
46.1933
  0
POINT
  8
0
 62
0
  6
Solid_Line
 10
320444.1350
 20
5815026.9260
 30
46.2780
  0
POINT
  8
0
 62
0
  6
Solid_Line
 10
320445.8398
 20
5815003.7220
 30
46.1790
  0
POINT
  8
0
 62
0
  6
Solid_Line
 10
320467.8526
 20
5815089.9143
 30
46.4500
  0
POINT
  8
0
 62
0
  6
Solid_Line
 10
320441.9640
 20
5815083.7658
 30
44.7600
  0
POINT
  8
0
 62
0
  6
Solid_Line
 10
320437.0226
 20
5815025.7918
 30
46.2210
  0
POINT
  8
0
 62
0
  6
Solid_Line
 10
320505.8040
 20
5814975.6230
 30
45.0810
  0
POINT
  8
0
 62
0
  6
Solid_Line
 10
320497.8900
 20
5815107.4560
 30
46.3950
  0
POINT
  8
0
 62
0
  6
Solid_Line
 10
320577.9470
 20
5815103.5450
 30
46.4100
  0
POINT
  8
0
 62
0
  6
Solid_Line
 10
320616.2550
 20
5815029.8800
 30
46.6980
  0
POINT
  8
0
 62
0
  6
Solid_Line
 10
320590.2690
 20
5814955.2810
 30
45.8300
  0
POLYLINE
 66
1
 70
8
  8
0
 62
90
  6
Solid_Line
  0
VERTEX
  8
0
 70
32
 10
320450.5871
 20
5815009.6754
 30
46.1933
  0
VERTEX
  8
0
 70
32
 10
320449.6704
 20
5815007.4337
 30
46.2378
  0
VERTEX
  8
0
 70
32
 10
320449.9806
 20
5815004.6669
 30
46.2220
  0
VERTEX
  8
0
 70
32
 10
320451.4769
 20
5815001.8164
 30
46.2310
  0
VERTEX
  8
0
 70
32
 10
320452.7340
 20
5814999.1613
 30
46.2240
  0
VERTEX
  8
0
 70
32
 10
320452.5583
 20
5814996.1749
 30
46.1840
  0
VERTEX
  8
0
 70
32
 10
320451.4583
 20
5814993.1943
 30
46.1947
  0
VERTEX
  8
0
 70
32
 10
320453.4555
 20
5814991.8255
 30
46.2355
  0
VERTEX
  8
0
 70
32
 10
320456.0134
 20
5814992.5661
 30
46.2569
  0
VERTEX
  8
0
 70
32
 10
320456.5742
 20
5814994.8013
 30
46.2485
  0
VERTEX
  8
0
 70
32
 10
320456.3476
 20
5814997.4604
 30
46.2563
  0
VERTEX
  8
0
 70
32
 10
320455.8722
 20
5814999.7323
 30
46.2393
  0
VERTEX
  8
0
 70
32
 10
320455.8864
 20
5815001.1530
 30
46.1635
  0
VERTEX
  8
0
 70
32
 10
320454.6301
 20
5815007.8803
 30
46.1203
  0
VERTEX
  8
0
 70
32
 10
320452.8482
 20
5815009.4793
 30
46.1353
  0
SEQEND
  0
ENDSEC
  0
EOF
