  0
SECTION
  2
HEADER
  9
$ACADVER
  1
AC1009
  9
$EXTMIN
 10
0.0000
 20
0.0000
 30
0.0000
  9
$EXTMAX
 10
0.0000
 20
0.0000
 30
0.0000
  9
$LIMMIN
 10
0.0000
 20
0.0000
  9
$LIMMAX
 10
0.0000
 20
0.0000
  9
$LTSCALE
 40
0.100000
  9
$ATTMODE
 70
1
  9
$FILLMODE
 70
1
  9
$TEXTSIZE
 40
0.200000
  9
$TEXTSTYLE
  7
STANDARD
  9
$CELTYPE
  6
BYLAYER
  9
$PLINEGEN
 70
1
  9
$CECOLOR
 62
0
  9
$LUNITS
 70
2
  9
$LUPREC
 70
3
  9
$AUPREC
 70
4
  9
$ANGBASE
 50
0.000000
  9
$ANGDIR
 70
0
  9
$PDMODE
 70
2
  9
$PDSIZE
 40
0.100000
  9
$PLINEGEN
 70
1
  9
$MEASUREMENT
 70
1
  0
ENDSEC
  0
SECTION
  2
TABLES
  0
TABLE
  2
LTYPE
 70
5
  0
LTYPE
  2
Solid_Line
 70
0
  3
Solid Line
 72
65
 73
0
 40
0.0
  0
LTYPE
  2
Dashed_Line
 70
0
  3
Dashed Line
 72
65
 73
2
 40
0.75
 49
0.50
 49
-0.25
  0
LTYPE
  2
Dotted_Line
 70
0
  3
Dotted Line
 72
65
 73
2
 40
0.25
 49
0.00
 49
-0.25
  0
LTYPE
  2
DashDot_Line
 70
0
  3
DashDot Line
 72
65
 73
4
 40
18.0
 49
12.0
 49
-3.0
 49
0.0
 49
-3.0
  0
LTYPE
  2
DashDotDot_Line
 70
0
  3
DashDotDot Line
 72
65
 73
6
 40
21.0
 49
12.0
 49
-3.0
 49
0.0 
 49
-3.0
 49
0.0 
 49
-3.0
  0
ENDTAB
  0
TABLE
  2
APPID
 70
2
  0
APPID
  2
PE_URL
 70
0
  0
ENDTAB
  0
ENDSEC
  0
SECTION
  2
BLOCKS
  0
ENDSEC
  0
SECTION
  2
ENTITIES
  0
POINT
  8
0
 62
0
  6
Solid_Line
 10
320440.9964
 20
5815025.5568
 30
46.2492
  0
POINT
  8
0
 62
0
  6
Solid_Line
 10
320440.3592
 20
5815025.5406
 30
46.2746
  0
POINT
  8
0
 62
0
  6
Solid_Line
 10
320440.2856
 20
5815029.8588
 30
46.3931
  0
POINT
  8
0
 62
0
  6
Solid_Line
 10
320440.8936
 20
5815029.8538
 30
46.3199
  0
POINT
  8
0
 62
0
  6
Solid_Line
 10
320443.0211
 20
5815077.4268
 30
44.9304
  0
POINT
  8
0
 62
0
  6
Solid_Line
 10
320437.1399
 20
5815074.6468
 30
44.8308
  0
POINT
  8
0
 62
0
  6
Solid_Line
 10
320437.9683
 20
5815078.9133
 30
44.8305
  0
POINT
  8
0
 62
0
  6
Solid_Line
 10
320441.4207
 20
5815081.9335
 30
44.8208
  0
POINT
  8
0
 62
0
  6
Solid_Line
 10
320442.4566
 20
5815080.3554
 30
44.8492
  0
POINT
  8
0
 62
0
  6
Solid_Line
 10
320441.1373
 20
5815075.6154
 30
44.9223
  0
POINT
  8
0
 62
0
  6
Solid_Line
 10
320438.7840
 20
5815072.2038
 30
44.8363
  0
POINT
  8
0
 62
0
  6
Solid_Line
 10
320431.1865
 20
5815054.9795
 30
44.6460
  0
POINT
  8
0
 62
0
  6
Solid_Line
 10
320433.4259
 20
5815055.7797
 30
44.6476
  0
POINT
  8
0
 62
0
  6
Solid_Line
 10
320433.9502
 20
5815053.5474
 30
44.6766
  0
POINT
  8
0
 62
0
  6
Solid_Line
 10
320432.8293
 20
5815049.1808
 30
44.6268
  0
POINT
  8
0
 62
0
  6
Solid_Line
 10
320430.5056
 20
5815045.6214
 30
44.6019
  0
POINT
  8
0
 62
0
  6
Solid_Line
 10
320428.5028
 20
5815045.9573
 30
44.5695
  0
POINT
  8
0
 62
0
  6
Solid_Line
 10
320428.8074
 20
5815050.1440
 30
44.5951
  0
POINT
  8
0
 62
0
  6
Solid_Line
 10
320428.7276
 20
5815072.8063
 30
44.7859
  0
POINT
  8
0
 62
0
  6
Solid_Line
 10
320424.3405
 20
5815056.1427
 30
44.5019
  0
POINT
  8
0
 62
0
  6
Solid_Line
 10
320422.2621
 20
5815047.7102
 30
44.4175
  0
POINT
  8
0
 62
0
  6
Solid_Line
 10
320419.7003
 20
5815037.3108
 30
44.3455
  0
POINT
  8
0
 62
0
  6
Solid_Line
 10
320418.9881
 20
5815028.1730
 30
44.0814
  0
POINT
  8
0
 62
0
  6
Solid_Line
 10
320418.3123
 20
5815020.8446
 30
44.1126
  0
POINT
  8
0
 62
0
  6
Solid_Line
 10
320418.3096
 20
5815014.7195
 30
44.0321
  0
POINT
  8
0
 62
0
  6
Solid_Line
 10
320417.0108
 20
5814997.9152
 30
43.8147
  0
POINT
  8
0
 62
0
  6
Solid_Line
 10
320437.0226
 20
5815025.7918
 30
46.2210
  0
POINT
  8
0
 62
0
  6
Solid_Line
 10
320445.6855
 20
5815096.2866
 30
44.8309
  0
POINT
  8
0
 62
0
  6
Solid_Line
 10
320449.2227
 20
5815102.3610
 30
44.8511
  0
POINT
  8
0
 62
0
  6
Solid_Line
 10
320455.8193
 20
5815098.1333
 30
44.8965
  0
POINT
  8
0
 62
0
  6
Solid_Line
 10
320453.7732
 20
5815094.0385
 30
44.8897
  0
POINT
  8
0
 62
0
  6
Solid_Line
 10
320467.6287
 20
5815119.5369
 30
45.1245
  0
POINT
  8
0
 62
0
  6
Solid_Line
 10
320455.0242
 20
5815110.6330
 30
44.9630
  0
POINT
  8
0
 62
0
  6
Solid_Line
 10
320449.3945
 20
5815104.7834
 30
44.9022
  0
POINT
  8
0
 62
0
  6
Solid_Line
 10
320443.9816
 20
5815098.7821
 30
44.9144
  0
POINT
  8
0
 62
0
  6
Solid_Line
 10
320438.7328
 20
5815091.6338
 30
44.8225
  0
POINT
  8
0
 62
0
  6
Solid_Line
 10
320430.7569
 20
5815077.5776
 30
44.7327
  0
POINT
  8
0
 62
0
  6
Solid_Line
 10
320535.4376
 20
5815072.1095
 30
46.0156
  0
POINT
  8
0
 62
0
  6
Solid_Line
 10
320518.7167
 20
5815060.3155
 30
45.9562
  0
POINT
  8
0
 62
0
  6
Solid_Line
 10
320504.6456
 20
5815047.8706
 30
45.8617
  0
POINT
  8
0
 62
0
  6
Solid_Line
 10
320489.1754
 20
5815035.8557
 30
45.6851
  0
POINT
  8
0
 62
0
  6
Solid_Line
 10
320462.0008
 20
5815033.5735
 30
45.3003
  0
POINT
  8
0
 62
0
  6
Solid_Line
 10
320473.1905
 20
5815047.8972
 30
45.3280
  0
POINT
  8
0
 62
0
  6
Solid_Line
 10
320482.0832
 20
5815058.9950
 30
45.3390
  0
POINT
  8
0
 62
0
  6
Solid_Line
 10
320492.1344
 20
5815073.2720
 30
45.3705
  0
POINT
  8
0
 62
0
  6
Solid_Line
 10
320504.1095
 20
5815090.6474
 30
45.3160
  0
POINT
  8
0
 62
0
  6
Solid_Line
 10
320466.5755
 20
5815077.6918
 30
45.2397
  0
POINT
  8
0
 62
0
  6
Solid_Line
 10
320471.3050
 20
5815084.2793
 30
45.3686
  0
POINT
  8
0
 62
0
  6
Solid_Line
 10
320479.1730
 20
5815092.0043
 30
45.4732
  0
POINT
  8
0
 62
0
  6
Solid_Line
 10
320484.4314
 20
5815095.9240
 30
45.6684
  0
POINT
  8
0
 62
0
  6
Solid_Line
 10
320472.9147
 20
5815098.2338
 30
46.3913
  0
POINT
  8
0
 62
0
  6
Solid_Line
 10
320461.6432
 20
5815090.9758
 30
45.7518
  0
POINT
  8
0
 62
0
  6
Solid_Line
 10
320463.3936
 20
5815086.6776
 30
46.3273
  0
POINT
  8
0
 62
0
  6
Solid_Line
 10
320459.7081
 20
5815080.3735
 30
46.3858
  0
POINT
  8
0
 62
0
  6
Solid_Line
 10
320464.2847
 20
5815078.6587
 30
45.8665
  0
POINT
  8
0
 62
0
  6
Solid_Line
 10
320467.8565
 20
5815083.0563
 30
45.7917
  0
POINT
  8
0
 62
0
  6
Solid_Line
 10
320473.3155
 20
5815089.7767
 30
45.9195
  0
POINT
  8
0
 62
0
  6
Solid_Line
 10
320451.7335
 20
5815102.2099
 30
44.8434
  0
POINT
  8
0
 62
0
  6
Solid_Line
 10
320450.5873
 20
5815097.8817
 30
44.8449
  0
POINT
  8
0
 62
0
  6
Solid_Line
 10
320449.6311
 20
5815090.6533
 30
44.8663
  0
POINT
  8
0
 62
0
  6
Solid_Line
 10
320484.7157
 20
5815116.6354
 30
45.3733
  0
POINT
  8
0
 62
0
  6
Solid_Line
 10
320474.8552
 20
5815110.1060
 30
45.0969
  0
POINT
  8
0
 62
0
  6
Solid_Line
 10
320464.8411
 20
5815101.8848
 30
44.9605
  0
POINT
  8
0
 62
0
  6
Solid_Line
 10
320455.8774
 20
5815091.7121
 30
44.8927
  0
POINT
  8
0
 62
0
  6
Solid_Line
 10
320448.9611
 20
5815084.0341
 30
44.8646
  0
POINT
  8
0
 62
0
  6
Solid_Line
 10
320453.8646
 20
5815076.9213
 30
46.2307
  0
POINT
  8
0
 62
0
  6
Solid_Line
 10
320463.5584
 20
5815072.4302
 30
45.1642
  0
POINT
  8
0
 62
0
  6
Solid_Line
 10
320463.7231
 20
5815068.0798
 30
44.9412
  0
POINT
  8
0
 62
0
  6
Solid_Line
 10
320465.3990
 20
5815070.9043
 30
44.9534
  0
POINT
  8
0
 62
0
  6
Solid_Line
 10
320467.9643
 20
5815074.9591
 30
45.0343
  0
POINT
  8
0
 62
0
  6
Solid_Line
 10
320470.6990
 20
5815078.8368
 30
45.0885
  0
POINT
  8
0
 62
0
  6
Solid_Line
 10
320473.6865
 20
5815082.5574
 30
45.1226
  0
POINT
  8
0
 62
0
  6
Solid_Line
 10
320475.3018
 20
5815084.3663
 30
45.1450
  0
POINT
  8
0
 62
0
  6
Solid_Line
 10
320478.6847
 20
5815087.7538
 30
45.1989
  0
POINT
  8
0
 62
0
  6
Solid_Line
 10
320482.7258
 20
5815091.5010
 30
45.4285
  0
POINT
  8
0
 62
0
  6
Solid_Line
 10
320482.9823
 20
5815092.8663
 30
45.4606
  0
POINT
  8
0
 62
0
  6
Solid_Line
 10
320487.8529
 20
5815096.3918
 30
45.7935
  0
POINT
  8
0
 62
0
  6
Solid_Line
 10
320489.5713
 20
5815096.1713
 30
45.8248
  0
POINT
  8
0
 62
0
  6
Solid_Line
 10
320496.9596
 20
5815100.4234
 30
45.6358
  0
POINT
  8
0
 62
0
  6
Solid_Line
 10
320501.2993
 20
5815102.4089
 30
45.3525
  0
POINT
  8
0
 62
0
  6
Solid_Line
 10
320492.2706
 20
5815107.7334
 30
46.3937
  0
POINT
  8
0
 62
0
  6
Solid_Line
 10
320484.9065
 20
5815103.4314
 30
46.4563
  0
POINT
  8
0
 62
0
  6
Solid_Line
 10
320485.7082
 20
5815102.1453
 30
46.2975
  0
POINT
  8
0
 62
0
  6
Solid_Line
 10
320493.1396
 20
5815106.2878
 30
46.3416
  0
POINT
  8
0
 62
0
  6
Solid_Line
 10
320493.8286
 20
5815105.1296
 30
46.1926
  0
POINT
  8
0
 62
0
  6
Solid_Line
 10
320486.5071
 20
5815100.8078
 30
46.0685
  0
POINT
  8
0
 62
0
  6
Solid_Line
 10
320483.2969
 20
5815098.7540
 30
46.0652
  0
POINT
  8
0
 62
0
  6
Solid_Line
 10
320476.7402
 20
5815093.3672
 30
46.0333
  0
POINT
  8
0
 62
0
  6
Solid_Line
 10
320475.7765
 20
5815094.5354
 30
46.2373
  0
POINT
  8
0
 62
0
  6
Solid_Line
 10
320482.4621
 20
5815099.7861
 30
46.2701
  0
POINT
  8
0
 62
0
  6
Solid_Line
 10
320481.2439
 20
5815101.2447
 30
46.4178
  0
POINT
  8
0
 62
0
  6
Solid_Line
 10
320474.6652
 20
5815095.9146
 30
46.4062
  0
POINT
  8
0
 62
0
  6
Solid_Line
 10
320483.9785
 20
5815108.7283
 30
46.0098
  0
POINT
  8
0
 62
0
  6
Solid_Line
 10
320465.7975
 20
5815114.6328
 30
45.1943
  0
POINT
  8
0
 62
0
  6
Solid_Line
 10
320475.3697
 20
5815102.3149
 30
46.1732
  0
POINT
  8
0
 62
0
  6
Solid_Line
 10
320466.1974
 20
5815094.6370
 30
45.7920
  0
POINT
  8
0
 62
0
  6
Solid_Line
 10
320452.4748
 20
5815092.4243
 30
44.5463
  0
POINT
  8
0
 62
0
  6
Solid_Line
 10
320458.7715
 20
5815085.8196
 30
45.7321
  0
POINT
  8
0
 62
0
  6
Solid_Line
 10
320455.6500
 20
5815079.5095
 30
46.6820
  0
POINT
  8
0
 62
0
  6
Solid_Line
 10
320497.8900
 20
5815107.4560
 30
46.3950
  0
POINT
  8
0
 62
0
  6
Solid_Line
 10
320467.8526
 20
5815089.9143
 30
46.4500
  0
POINT
  8
0
 62
0
  6
Solid_Line
 10
320442.6931
 20
5814998.0884
 30
46.1371
  0
POINT
  8
0
 62
0
  6
Solid_Line
 10
320442.8671
 20
5815001.5091
 30
46.1733
  0
POINT
  8
0
 62
0
  6
Solid_Line
 10
320438.2732
 20
5815007.6894
 30
46.2596
  0
POINT
  8
0
 62
0
  6
Solid_Line
 10
320442.0104
 20
5815043.7529
 30
46.4138
  0
POINT
  8
0
 62
0
  6
Solid_Line
 10
320441.1435
 20
5815034.5388
 30
46.4599
  0
POINT
  8
0
 62
0
  6
Solid_Line
 10
320437.2188
 20
5815015.9401
 30
46.3383
  0
POINT
  8
0
 62
0
  6
Solid_Line
 10
320451.9844
 20
5814987.2087
 30
46.4064
  0
POINT
  8
0
 62
0
  6
Solid_Line
 10
320421.4643
 20
5814992.5059
 30
44.5330
  0
POINT
  8
0
 62
0
  6
Solid_Line
 10
320443.0552
 20
5815015.2276
 30
46.4118
  0
POINT
  8
0
 62
0
  6
Solid_Line
 10
320452.8482
 20
5815009.4793
 30
46.1353
  0
POINT
  8
0
 62
0
  6
Solid_Line
 10
320454.6301
 20
5815007.8803
 30
46.1203
  0
POINT
  8
0
 62
0
  6
Solid_Line
 10
320455.8864
 20
5815001.1530
 30
46.1635
  0
POINT
  8
0
 62
0
  6
Solid_Line
 10
320455.8722
 20
5814999.7323
 30
46.2393
  0
POINT
  8
0
 62
0
  6
Solid_Line
 10
320456.3476
 20
5814997.4604
 30
46.2563
  0
POINT
  8
0
 62
0
  6
Solid_Line
 10
320456.5742
 20
5814994.8013
 30
46.2485
  0
POINT
  8
0
 62
0
  6
Solid_Line
 10
320456.0134
 20
5814992.5661
 30
46.2569
  0
POINT
  8
0
 62
0
  6
Solid_Line
 10
320453.4555
 20
5814991.8255
 30
46.2355
  0
POINT
  8
0
 62
0
  6
Solid_Line
 10
320451.4583
 20
5814993.1943
 30
46.1947
  0
POINT
  8
0
 62
0
  6
Solid_Line
 10
320452.5583
 20
5814996.1749
 30
46.1840
  0
POINT
  8
0
 62
0
  6
Solid_Line
 10
320452.7340
 20
5814999.1613
 30
46.2240
  0
POINT
  8
0
 62
0
  6
Solid_Line
 10
320451.4769
 20
5815001.8164
 30
46.2310
  0
POINT
  8
0
 62
0
  6
Solid_Line
 10
320449.9806
 20
5815004.6669
 30
46.2220
  0
POINT
  8
0
 62
0
  6
Solid_Line
 10
320449.6704
 20
5815007.4337
 30
46.2378
  0
POINT
  8
0
 62
0
  6
Solid_Line
 10
320450.5871
 20
5815009.6754
 30
46.1933
  0
POINT
  8
0
 62
0
  6
Solid_Line
 10
320444.1350
 20
5815026.9260
 30
46.2780
  0
POINT
  8
0
 62
0
  6
Solid_Line
 10
320445.8398
 20
5815003.7220
 30
46.1790
  0
POINT
  8
0
 62
0
  6
Solid_Line
 10
320441.9640
 20
5815083.7658
 30
44.7600
  0
POINT
  8
0
 62
0
  6
Solid_Line
 10
320505.8040
 20
5814975.6230
 30
45.0810
  0
POINT
  8
0
 62
0
  6
Solid_Line
 10
320577.9470
 20
5815103.5450
 30
46.4100
  0
POINT
  8
0
 62
0
  6
Solid_Line
 10
320616.2550
 20
5815029.8800
 30
46.6980
  0
POINT
  8
0
 62
0
  6
Solid_Line
 10
320590.2690
 20
5814955.2810
 30
45.8300
  0
POLYLINE
 66
1
 70
8
  8
0
 62
90
  6
Solid_Line
  0
VERTEX
  8
0
 70
32
 10
320450.5871
 20
5815009.6754
 30
46.1933
  0
VERTEX
  8
0
 70
32
 10
320449.6704
 20
5815007.4337
 30
46.2378
  0
VERTEX
  8
0
 70
32
 10
320449.9806
 20
5815004.6669
 30
46.2220
  0
VERTEX
  8
0
 70
32
 10
320451.4769
 20
5815001.8164
 30
46.2310
  0
VERTEX
  8
0
 70
32
 10
320452.7340
 20
5814999.1613
 30
46.2240
  0
VERTEX
  8
0
 70
32
 10
320452.5583
 20
5814996.1749
 30
46.1840
  0
VERTEX
  8
0
 70
32
 10
320451.4583
 20
5814993.1943
 30
46.1947
  0
VERTEX
  8
0
 70
32
 10
320453.4555
 20
5814991.8255
 30
46.2355
  0
VERTEX
  8
0
 70
32
 10
320456.0134
 20
5814992.5661
 30
46.2569
  0
VERTEX
  8
0
 70
32
 10
320456.5742
 20
5814994.8013
 30
46.2485
  0
VERTEX
  8
0
 70
32
 10
320456.3476
 20
5814997.4604
 30
46.2563
  0
VERTEX
  8
0
 70
32
 10
320455.8722
 20
5814999.7323
 30
46.2393
  0
VERTEX
  8
0
 70
32
 10
320455.8864
 20
5815001.1530
 30
46.1635
  0
VERTEX
  8
0
 70
32
 10
320454.6301
 20
5815007.8803
 30
46.1203
  0
VERTEX
  8
0
 70
32
 10
320452.8482
 20
5815009.4793
 30
46.1353
  0
SEQEND
  0
POLYLINE
 66
1
 70
8
  8
0
 62
40
  6
Solid_Line
  0
VERTEX
  8
0
 70
32
 10
320474.6652
 20
5815095.9146
 30
46.4062
  0
VERTEX
  8
0
 70
32
 10
320481.2439
 20
5815101.2447
 30
46.4178
  0
SEQEND
  0
POLYLINE
 66
1
 70
8
  8
0
 62
40
  6
Solid_Line
  0
VERTEX
  8
0
 70
32
 10
320482.4621
 20
5815099.7861
 30
46.2701
  0
VERTEX
  8
0
 70
32
 10
320475.7765
 20
5815094.5354
 30
46.2373
  0
SEQEND
  0
POLYLINE
 66
1
 70
8
  8
0
 62
40
  6
Solid_Line
  0
VERTEX
  8
0
 70
32
 10
320476.7402
 20
5815093.3672
 30
46.0333
  0
VERTEX
  8
0
 70
32
 10
320483.2969
 20
5815098.7540
 30
46.0652
  0
SEQEND
  0
POLYLINE
 66
1
 70
8
  8
0
 62
40
  6
Solid_Line
  0
VERTEX
  8
0
 70
32
 10
320486.5071
 20
5815100.8078
 30
46.0685
  0
VERTEX
  8
0
 70
32
 10
320493.8286
 20
5815105.1296
 30
46.1926
  0
SEQEND
  0
POLYLINE
 66
1
 70
8
  8
0
 62
40
  6
Solid_Line
  0
VERTEX
  8
0
 70
32
 10
320493.1396
 20
5815106.2878
 30
46.3416
  0
VERTEX
  8
0
 70
32
 10
320485.7082
 20
5815102.1453
 30
46.2975
  0
SEQEND
  0
POLYLINE
 66
1
 70
8
  8
0
 62
40
  6
Solid_Line
  0
VERTEX
  8
0
 70
32
 10
320484.9065
 20
5815103.4314
 30
46.4563
  0
VERTEX
  8
0
 70
32
 10
320492.2706
 20
5815107.7334
 30
46.3937
  0
SEQEND
  0
POLYLINE
 66
1
 70
8
  8
0
 62
201
  6
Solid_Line
  0
VERTEX
  8
0
 70
32
 10
320501.2993
 20
5815102.4089
 30
45.3525
  0
VERTEX
  8
0
 70
32
 10
320496.9596
 20
5815100.4234
 30
45.6358
  0
VERTEX
  8
0
 70
32
 10
320489.5713
 20
5815096.1713
 30
45.8248
  0
VERTEX
  8
0
 70
32
 10
320487.8529
 20
5815096.3918
 30
45.7935
  0
VERTEX
  8
0
 70
32
 10
320482.9823
 20
5815092.8663
 30
45.4606
  0
VERTEX
  8
0
 70
32
 10
320482.7258
 20
5815091.5010
 30
45.4285
  0
VERTEX
  8
0
 70
32
 10
320478.6847
 20
5815087.7538
 30
45.1989
  0
VERTEX
  8
0
 70
32
 10
320475.3018
 20
5815084.3663
 30
45.1450
  0
VERTEX
  8
0
 70
32
 10
320473.6865
 20
5815082.5574
 30
45.1226
  0
VERTEX
  8
0
 70
32
 10
320470.6990
 20
5815078.8368
 30
45.0885
  0
VERTEX
  8
0
 70
32
 10
320467.9643
 20
5815074.9591
 30
45.0343
  0
VERTEX
  8
0
 70
32
 10
320465.3990
 20
5815070.9043
 30
44.9534
  0
VERTEX
  8
0
 70
32
 10
320463.7231
 20
5815068.0798
 30
44.9412
  0
SEQEND
  0
POLYLINE
 66
1
 70
8
  8
0
 62
20
  6
Solid_Line
  0
VERTEX
  8
0
 70
32
 10
320463.5584
 20
5815072.4302
 30
45.1642
  0
VERTEX
  8
0
 70
32
 10
320453.8646
 20
5815076.9213
 30
46.2307
  0
SEQEND
  0
POLYLINE
 66
1
 70
8
  8
0
 62
0
  6
Solid_Line
  0
VERTEX
  8
0
 70
32
 10
320448.9611
 20
5815084.0341
 30
44.8646
  0
VERTEX
  8
0
 70
32
 10
320455.8774
 20
5815091.7121
 30
44.8927
  0
VERTEX
  8
0
 70
32
 10
320464.8411
 20
5815101.8848
 30
44.9605
  0
VERTEX
  8
0
 70
32
 10
320474.8552
 20
5815110.1060
 30
45.0969
  0
VERTEX
  8
0
 70
32
 10
320484.7157
 20
5815116.6354
 30
45.3733
  0
SEQEND
  0
POLYLINE
 66
1
 70
8
  8
0
 62
0
  6
Solid_Line
  0
VERTEX
  8
0
 70
32
 10
320449.6311
 20
5815090.6533
 30
44.8663
  0
VERTEX
  8
0
 70
32
 10
320450.5873
 20
5815097.8817
 30
44.8449
  0
VERTEX
  8
0
 70
32
 10
320451.7335
 20
5815102.2099
 30
44.8434
  0
SEQEND
  0
POLYLINE
 66
1
 70
8
  8
0
 62
40
  6
Solid_Line
  0
VERTEX
  8
0
 70
32
 10
320430.7569
 20
5815077.5776
 30
44.7327
  0
VERTEX
  8
0
 70
32
 10
320438.7328
 20
5815091.6338
 30
44.8225
  0
VERTEX
  8
0
 70
32
 10
320443.9816
 20
5815098.7821
 30
44.9144
  0
VERTEX
  8
0
 70
32
 10
320449.3945
 20
5815104.7834
 30
44.9022
  0
VERTEX
  8
0
 70
32
 10
320455.0242
 20
5815110.6330
 30
44.9630
  0
VERTEX
  8
0
 70
32
 10
320467.6287
 20
5815119.5369
 30
45.1245
  0
SEQEND
  0
POLYLINE
 66
1
 70
8
  8
0
 62
201
  6
Solid_Line
  0
VERTEX
  8
0
 70
32
 10
320417.0108
 20
5814997.9152
 30
43.8147
  0
VERTEX
  8
0
 70
32
 10
320418.3096
 20
5815014.7195
 30
44.0321
  0
VERTEX
  8
0
 70
32
 10
320418.3123
 20
5815020.8446
 30
44.1126
  0
VERTEX
  8
0
 70
32
 10
320418.9881
 20
5815028.1730
 30
44.0814
  0
VERTEX
  8
0
 70
32
 10
320419.7003
 20
5815037.3108
 30
44.3455
  0
VERTEX
  8
0
 70
32
 10
320422.2621
 20
5815047.7102
 30
44.4175
  0
VERTEX
  8
0
 70
32
 10
320424.3405
 20
5815056.1427
 30
44.5019
  0
VERTEX
  8
0
 70
32
 10
320428.7276
 20
5815072.8063
 30
44.7859
  0
SEQEND
  0
POLYLINE
 66
1
 70
8
  8
0
 62
90
  6
Solid_Line
  0
VERTEX
  8
0
 70
32
 10
320428.8074
 20
5815050.1440
 30
44.5951
  0
VERTEX
  8
0
 70
32
 10
320428.5028
 20
5815045.9573
 30
44.5695
  0
VERTEX
  8
0
 70
32
 10
320430.5056
 20
5815045.6214
 30
44.6019
  0
VERTEX
  8
0
 70
32
 10
320432.8293
 20
5815049.1808
 30
44.6268
  0
VERTEX
  8
0
 70
32
 10
320433.9502
 20
5815053.5474
 30
44.6766
  0
VERTEX
  8
0
 70
32
 10
320433.4259
 20
5815055.7797
 30
44.6476
  0
VERTEX
  8
0
 70
32
 10
320431.1865
 20
5815054.9795
 30
44.6460
  0
SEQEND
  0
POLYLINE
 66
1
 70
8
  8
0
 62
90
  6
Solid_Line
  0
VERTEX
  8
0
 70
32
 10
320438.7840
 20
5815072.2038
 30
44.8363
  0
VERTEX
  8
0
 70
32
 10
320441.1373
 20
5815075.6154
 30
44.9223
  0
VERTEX
  8
0
 70
32
 10
320442.4566
 20
5815080.3554
 30
44.8492
  0
VERTEX
  8
0
 70
32
 10
320441.4207
 20
5815081.9335
 30
44.8208
  0
VERTEX
  8
0
 70
32
 10
320437.9683
 20
5815078.9133
 30
44.8305
  0
VERTEX
  8
0
 70
32
 10
320437.1399
 20
5815074.6468
 30
44.8308
  0
SEQEND
  0
POLYLINE
 66
1
 70
8
  8
0
 62
90
  6
Solid_Line
  0
VERTEX
  8
0
 70
32
 10
320440.8936
 20
5815029.8538
 30
46.3199
  0
VERTEX
  8
0
 70
32
 10
320440.2856
 20
5815029.8588
 30
46.3931
  0
VERTEX
  8
0
 70
32
 10
320440.3592
 20
5815025.5406
 30
46.2746
  0
VERTEX
  8
0
 70
32
 10
320440.9964
 20
5815025.5568
 30
46.2492
  0
SEQEND
  0
ENDSEC
  0
EOF
