  0
SECTION
  2
HEADER
  9
$ACADVER
  1
AC1009
  9
$EXTMIN
 10
0.0000
 20
0.0000
 30
0.0000
  9
$EXTMAX
 10
0.0000
 20
0.0000
 30
0.0000
  9
$LIMMIN
 10
0.0000
 20
0.0000
  9
$LIMMAX
 10
0.0000
 20
0.0000
  9
$LTSCALE
 40
0.100000
  9
$ATTMODE
 70
1
  9
$FILLMODE
 70
1
  9
$TEXTSIZE
 40
0.200000
  9
$TEXTSTYLE
  7
STANDARD
  9
$CELTYPE
  6
BYLAYER
  9
$PLINEGEN
 70
1
  9
$CECOLOR
 62
0
  9
$LUNITS
 70
2
  9
$LUPREC
 70
3
  9
$AUPREC
 70
4
  9
$ANGBASE
 50
0.000000
  9
$ANGDIR
 70
0
  9
$PDMODE
 70
2
  9
$PDSIZE
 40
0.100000
  9
$PLINEGEN
 70
1
  9
$MEASUREMENT
 70
1
  0
ENDSEC
  0
SECTION
  2
TABLES
  0
TABLE
  2
LTYPE
 70
5
  0
LTYPE
  2
Solid_Line
 70
0
  3
Solid Line
 72
65
 73
0
 40
0.0
  0
LTYPE
  2
Dashed_Line
 70
0
  3
Dashed Line
 72
65
 73
2
 40
0.75
 49
0.50
 49
-0.25
  0
LTYPE
  2
Dotted_Line
 70
0
  3
Dotted Line
 72
65
 73
2
 40
0.25
 49
0.00
 49
-0.25
  0
LTYPE
  2
DashDot_Line
 70
0
  3
DashDot Line
 72
65
 73
4
 40
18.0
 49
12.0
 49
-3.0
 49
0.0
 49
-3.0
  0
LTYPE
  2
DashDotDot_Line
 70
0
  3
DashDotDot Line
 72
65
 73
6
 40
21.0
 49
12.0
 49
-3.0
 49
0.0 
 49
-3.0
 49
0.0 
 49
-3.0
  0
ENDTAB
  0
TABLE
  2
APPID
 70
2
  0
APPID
  2
PE_URL
 70
0
  0
ENDTAB
  0
ENDSEC
  0
SECTION
  2
BLOCKS
  0
ENDSEC
  0
SECTION
  2
ENTITIES
  0
POINT
  8
0
 62
0
  6
Solid_Line
 10
320450.2504
 20
5815019.2885
 30
45.6083
  0
POINT
  8
0
 62
0
  6
Solid_Line
 10
320432.9314
 20
5815012.5688
 30
45.5261
  0
POINT
  8
0
 62
0
  6
Solid_Line
 10
320430.8790
 20
5815005.2154
 30
45.5750
  0
POINT
  8
0
 62
0
  6
Solid_Line
 10
320428.9808
 20
5814999.1679
 30
45.4224
  0
POINT
  8
0
 62
0
  6
Solid_Line
 10
320430.0621
 20
5814990.3201
 30
45.0745
  0
POINT
  8
0
 62
0
  6
Solid_Line
 10
320429.9470
 20
5814983.5367
 30
45.0178
  0
POINT
  8
0
 62
0
  6
Solid_Line
 10
320429.5893
 20
5814979.2337
 30
44.9568
  0
POINT
  8
0
 62
0
  6
Solid_Line
 10
320447.2939
 20
5814992.1844
 30
45.6260
  0
POINT
  8
0
 62
0
  6
Solid_Line
 10
320453.1153
 20
5815038.9077
 30
44.8161
  0
POINT
  8
0
 62
0
  6
Solid_Line
 10
320445.2631
 20
5815051.4441
 30
45.8111
  0
POINT
  8
0
 62
0
  6
Solid_Line
 10
320444.3773
 20
5815054.4090
 30
45.6420
  0
POINT
  8
0
 62
0
  6
Solid_Line
 10
320442.4794
 20
5815062.5580
 30
44.4286
  0
POINT
  8
0
 62
0
  6
Solid_Line
 10
320443.9690
 20
5815073.1842
 30
44.3293
  0
POINT
  8
0
 62
0
  6
Solid_Line
 10
320440.9695
 20
5815066.1597
 30
44.2368
  0
POINT
  8
0
 62
0
  6
Solid_Line
 10
320436.2985
 20
5815051.5988
 30
44.0794
  0
POINT
  8
0
 62
0
  6
Solid_Line
 10
320417.0028
 20
5815036.1463
 30
43.6790
  0
POINT
  8
0
 62
0
  6
Solid_Line
 10
320431.7345
 20
5815035.0600
 30
43.9754
  0
POINT
  8
0
 62
0
  6
Solid_Line
 10
320423.6138
 20
5815012.1581
 30
43.6765
  0
POINT
  8
0
 62
0
  6
Solid_Line
 10
320417.8449
 20
5814988.7525
 30
43.3540
  0
POINT
  8
0
 62
0
  6
Solid_Line
 10
320416.0760
 20
5814971.8961
 30
43.0726
  0
POINT
  8
0
 62
0
  6
Solid_Line
 10
320431.3242
 20
5814999.5315
 30
45.5416
  0
POINT
  8
0
 62
0
  6
Solid_Line
 10
320442.4298
 20
5815020.3344
 30
45.7999
  0
POINT
  8
0
 62
0
  6
Solid_Line
 10
320443.5807
 20
5815024.2545
 30
45.7900
  0
POINT
  8
0
 62
0
  6
Solid_Line
 10
320443.1624
 20
5815027.9458
 30
45.7794
  0
POINT
  8
0
 62
0
  6
Solid_Line
 10
320417.9274
 20
5814971.1384
 30
43.1017
  0
POINT
  8
0
 62
0
  6
Solid_Line
 10
320419.0886
 20
5814974.9350
 30
43.2014
  0
POINT
  8
0
 62
0
  6
Solid_Line
 10
320420.8386
 20
5814978.7374
 30
43.3986
  0
POINT
  8
0
 62
0
  6
Solid_Line
 10
320432.0257
 20
5814999.3038
 30
45.5575
  0
POINT
  8
0
 62
0
  6
Solid_Line
 10
320442.8239
 20
5815019.0815
 30
45.7926
  0
POINT
  8
0
 62
0
  6
Solid_Line
 10
320450.0073
 20
5815032.2511
 30
45.2860
  0
POINT
  8
0
 62
0
  6
Solid_Line
 10
320452.0725
 20
5815035.3155
 30
45.0183
  0
POINT
  8
0
 62
0
  6
Solid_Line
 10
320453.2574
 20
5815035.6302
 30
44.8704
  0
POINT
  8
0
 62
0
  6
Solid_Line
 10
320453.7656
 20
5815035.3626
 30
44.7996
  0
POINT
  8
0
 62
0
  6
Solid_Line
 10
320454.3787
 20
5815033.4037
 30
44.7468
  0
POINT
  8
0
 62
0
  6
Solid_Line
 10
320454.3789
 20
5815033.4073
 30
44.7469
  0
POINT
  8
0
 62
0
  6
Solid_Line
 10
320455.1598
 20
5815028.7239
 30
44.7207
  0
POINT
  8
0
 62
0
  6
Solid_Line
 10
320456.1262
 20
5815024.0782
 30
44.7501
  0
POINT
  8
0
 62
0
  6
Solid_Line
 10
320457.3309
 20
5815019.2546
 30
44.7585
  0
POINT
  8
0
 62
0
  6
Solid_Line
 10
320458.5246
 20
5815015.3757
 30
44.7195
  0
POINT
  8
0
 62
0
  6
Solid_Line
 10
320459.7728
 20
5815012.2327
 30
44.7022
  0
POINT
  8
0
 62
0
  6
Solid_Line
 10
320468.4872
 20
5814997.9879
 30
44.6243
  0
POINT
  8
0
 62
0
  6
Solid_Line
 10
320470.0470
 20
5814996.0486
 30
44.5985
  0
POINT
  8
0
 62
0
  6
Solid_Line
 10
320471.6190
 20
5814994.1189
 30
44.5806
  0
POINT
  8
0
 62
0
  6
Solid_Line
 10
320425.5685
 20
5815062.2485
 30
44.0490
  0
POINT
  8
0
 62
0
  6
Solid_Line
 10
320423.6293
 20
5815054.1813
 30
43.9495
  0
POINT
  8
0
 62
0
  6
Solid_Line
 10
320421.9738
 20
5815047.2016
 30
43.8603
  0
POINT
  8
0
 62
0
  6
Solid_Line
 10
320419.3768
 20
5815034.3158
 30
43.7015
  0
POINT
  8
0
 62
0
  6
Solid_Line
 10
320418.9056
 20
5815028.1075
 30
43.5659
  0
POINT
  8
0
 62
0
  6
Solid_Line
 10
320418.5965
 20
5815024.7270
 30
43.5517
  0
POINT
  8
0
 62
0
  6
Solid_Line
 10
320417.9301
 20
5815020.8392
 30
43.6518
  0
POINT
  8
0
 62
0
  6
Solid_Line
 10
320417.9671
 20
5815012.7364
 30
43.4300
  0
POINT
  8
0
 62
0
  6
Solid_Line
 10
320417.4578
 20
5815006.7303
 30
43.3549
  0
POINT
  8
0
 62
0
  6
Solid_Line
 10
320416.9908
 20
5815000.7301
 30
43.3326
  0
POINT
  8
0
 62
0
  6
Solid_Line
 10
320416.5679
 20
5814994.7465
 30
43.2783
  0
POINT
  8
0
 62
0
  6
Solid_Line
 10
320416.0539
 20
5814988.7392
 30
43.2931
  0
POINT
  8
0
 62
0
  6
Solid_Line
 10
320415.6308
 20
5814982.8093
 30
43.1783
  0
POINT
  8
0
 62
0
  6
Solid_Line
 10
320415.1592
 20
5814976.7876
 30
43.1176
  0
POINT
  8
0
 62
0
  6
Solid_Line
 10
320414.6863
 20
5814970.7779
 30
43.0337
  0
POINT
  8
0
 62
0
  6
Solid_Line
 10
320443.0540
 20
5815077.4524
 30
44.4104
  0
POINT
  8
0
 62
0
  6
Solid_Line
 10
320453.5429
 20
5815049.9975
 30
44.7031
  0
POINT
  8
0
 62
0
  6
Solid_Line
 10
320454.1583
 20
5815049.8704
 30
44.7035
  0
POINT
  8
0
 62
0
  6
Solid_Line
 10
320454.3841
 20
5815051.0866
 30
44.6787
  0
POINT
  8
0
 62
0
  6
Solid_Line
 10
320453.7722
 20
5815051.1974
 30
44.6859
  0
POINT
  8
0
 62
0
  6
Solid_Line
 10
320454.1656
 20
5815052.1129
 30
44.7443
  0
POINT
  8
0
 62
0
  6
Solid_Line
 10
320463.6033
 20
5815072.3614
 30
44.6600
  0
POINT
  8
0
 62
0
  6
Solid_Line
 10
320455.4067
 20
5815053.9295
 30
44.6285
  0
POINT
  8
0
 62
0
  6
Solid_Line
 10
320445.4808
 20
5815058.2913
 30
45.6471
  0
POINT
  8
0
 62
0
  6
Solid_Line
 10
320460.9425
 20
5815061.7937
 30
44.4286
  0
POINT
  8
0
 62
0
  6
Solid_Line
 10
320459.1704
 20
5815057.3999
 30
44.4586
  0
POINT
  8
0
 62
0
  6
Solid_Line
 10
320457.9136
 20
5815052.8160
 30
44.4656
  0
POINT
  8
0
 62
0
  6
Solid_Line
 10
320456.8868
 20
5815048.1751
 30
44.4972
  0
POINT
  8
0
 62
0
  6
Solid_Line
 10
320456.1736
 20
5815043.4850
 30
44.5450
  0
POINT
  8
0
 62
0
  6
Solid_Line
 10
320455.8868
 20
5815038.7117
 30
44.5647
  0
POINT
  8
0
 62
0
  6
Solid_Line
 10
320456.2397
 20
5815033.9571
 30
44.5813
  0
POINT
  8
0
 62
0
  6
Solid_Line
 10
320456.9867
 20
5815029.2380
 30
44.5981
  0
POINT
  8
0
 62
0
  6
Solid_Line
 10
320457.9711
 20
5815024.5951
 30
44.6033
  0
POINT
  8
0
 62
0
  6
Solid_Line
 10
320459.1074
 20
5815019.9879
 30
44.6211
  0
POINT
  8
0
 62
0
  6
Solid_Line
 10
320460.1844
 20
5815016.4266
 30
44.5950
  0
POINT
  8
0
 62
0
  6
Solid_Line
 10
320460.5396
 20
5815015.5031
 30
44.6016
  0
POINT
  8
0
 62
0
  6
Solid_Line
 10
320462.2838
 20
5815011.2589
 30
44.5820
  0
POINT
  8
0
 62
0
  6
Solid_Line
 10
320471.5246
 20
5814997.2527
 30
44.4790
  0
POINT
  8
0
 62
0
  6
Solid_Line
 10
320426.5780
 20
5815028.2252
 30
43.9120
  0
POINT
  8
0
 62
0
  6
Solid_Line
 10
320423.7912
 20
5815002.0690
 30
43.7719
  0
POINT
  8
0
 62
0
  6
Solid_Line
 10
320444.1350
 20
5815026.9260
 30
46.2780
  0
POINT
  8
0
 62
0
  6
Solid_Line
 10
320616.2550
 20
5815029.8800
 30
46.6980
  0
POINT
  8
0
 62
0
  6
Solid_Line
 10
320445.8398
 20
5815003.7220
 30
46.1790
  0
POINT
  8
0
 62
0
  6
Solid_Line
 10
320467.8526
 20
5815089.9143
 30
46.4500
  0
POINT
  8
0
 62
0
  6
Solid_Line
 10
320441.9640
 20
5815083.7658
 30
44.7600
  0
POINT
  8
0
 62
0
  6
Solid_Line
 10
320437.0226
 20
5815025.7918
 30
46.2210
  0
POINT
  8
0
 62
0
  6
Solid_Line
 10
320505.8040
 20
5814975.6230
 30
45.0810
  0
POINT
  8
0
 62
0
  6
Solid_Line
 10
320497.8900
 20
5815107.4560
 30
46.3950
  0
POINT
  8
0
 62
0
  6
Solid_Line
 10
320577.9470
 20
5815103.5450
 30
46.4100
  0
POINT
  8
0
 62
0
  6
Solid_Line
 10
320590.2690
 20
5814955.2810
 30
45.8300
  0
POLYLINE
 66
1
 70
8
  8
0
 62
201
  6
Solid_Line
  0
VERTEX
  8
0
 70
32
 10
320471.5246
 20
5814997.2527
 30
44.4790
  0
VERTEX
  8
0
 70
32
 10
320462.2838
 20
5815011.2589
 30
44.5820
  0
VERTEX
  8
0
 70
32
 10
320460.5396
 20
5815015.5031
 30
44.6016
  0
VERTEX
  8
0
 70
32
 10
320460.1844
 20
5815016.4266
 30
44.5950
  0
VERTEX
  8
0
 70
32
 10
320459.1074
 20
5815019.9879
 30
44.6211
  0
VERTEX
  8
0
 70
32
 10
320457.9711
 20
5815024.5951
 30
44.6033
  0
VERTEX
  8
0
 70
32
 10
320456.9867
 20
5815029.2380
 30
44.5981
  0
VERTEX
  8
0
 70
32
 10
320456.2397
 20
5815033.9571
 30
44.5813
  0
VERTEX
  8
0
 70
32
 10
320455.8868
 20
5815038.7117
 30
44.5647
  0
VERTEX
  8
0
 70
32
 10
320456.1736
 20
5815043.4850
 30
44.5450
  0
VERTEX
  8
0
 70
32
 10
320456.8868
 20
5815048.1751
 30
44.4972
  0
VERTEX
  8
0
 70
32
 10
320457.9136
 20
5815052.8160
 30
44.4656
  0
VERTEX
  8
0
 70
32
 10
320459.1704
 20
5815057.3999
 30
44.4586
  0
VERTEX
  8
0
 70
32
 10
320460.9425
 20
5815061.7937
 30
44.4286
  0
SEQEND
  0
POLYLINE
 66
1
 70
8
  8
0
 62
20
  6
Solid_Line
  0
VERTEX
  8
0
 70
32
 10
320445.4808
 20
5815058.2913
 30
45.6471
  0
VERTEX
  8
0
 70
32
 10
320455.4067
 20
5815053.9295
 30
44.6285
  0
VERTEX
  8
0
 70
32
 10
320463.6033
 20
5815072.3614
 30
44.6600
  0
SEQEND
  0
POLYLINE
 66
1
 70
8
  8
0
 62
201
  6
Solid_Line
  0
VERTEX
  8
0
 70
32
 10
320453.7722
 20
5815051.1974
 30
44.6859
  0
VERTEX
  8
0
 70
32
 10
320454.3841
 20
5815051.0866
 30
44.6787
  0
VERTEX
  8
0
 70
32
 10
320454.1583
 20
5815049.8704
 30
44.7035
  0
VERTEX
  8
0
 70
32
 10
320453.5429
 20
5815049.9975
 30
44.7031
  0
SEQEND
  0
POLYLINE
 66
1
 70
8
  8
0
 62
201
  6
Solid_Line
  0
VERTEX
  8
0
 70
32
 10
320414.6863
 20
5814970.7779
 30
43.0337
  0
VERTEX
  8
0
 70
32
 10
320415.1592
 20
5814976.7876
 30
43.1176
  0
VERTEX
  8
0
 70
32
 10
320415.6308
 20
5814982.8093
 30
43.1783
  0
VERTEX
  8
0
 70
32
 10
320416.0539
 20
5814988.7392
 30
43.2931
  0
VERTEX
  8
0
 70
32
 10
320416.5679
 20
5814994.7465
 30
43.2783
  0
VERTEX
  8
0
 70
32
 10
320416.9908
 20
5815000.7301
 30
43.3326
  0
VERTEX
  8
0
 70
32
 10
320417.4578
 20
5815006.7303
 30
43.3549
  0
VERTEX
  8
0
 70
32
 10
320417.9671
 20
5815012.7364
 30
43.4300
  0
VERTEX
  8
0
 70
32
 10
320417.9301
 20
5815020.8392
 30
43.6518
  0
VERTEX
  8
0
 70
32
 10
320418.5965
 20
5815024.7270
 30
43.5517
  0
VERTEX
  8
0
 70
32
 10
320418.9056
 20
5815028.1075
 30
43.5659
  0
VERTEX
  8
0
 70
32
 10
320419.3768
 20
5815034.3158
 30
43.7015
  0
VERTEX
  8
0
 70
32
 10
320421.9738
 20
5815047.2016
 30
43.8603
  0
VERTEX
  8
0
 70
32
 10
320423.6293
 20
5815054.1813
 30
43.9495
  0
VERTEX
  8
0
 70
32
 10
320425.5685
 20
5815062.2485
 30
44.0490
  0
VERTEX
  8
0
 70
32
 10
320454.3789
 20
5815033.4073
 30
44.7469
  0
SEQEND
  0
POLYLINE
 66
1
 70
8
  8
0
 62
0
  6
Solid_Line
  0
VERTEX
  8
0
 70
32
 10
320471.6190
 20
5814994.1189
 30
44.5806
  0
VERTEX
  8
0
 70
32
 10
320470.0470
 20
5814996.0486
 30
44.5985
  0
VERTEX
  8
0
 70
32
 10
320468.4872
 20
5814997.9879
 30
44.6243
  0
VERTEX
  8
0
 70
32
 10
320459.7728
 20
5815012.2327
 30
44.7022
  0
VERTEX
  8
0
 70
32
 10
320458.5246
 20
5815015.3757
 30
44.7195
  0
VERTEX
  8
0
 70
32
 10
320457.3309
 20
5815019.2546
 30
44.7585
  0
VERTEX
  8
0
 70
32
 10
320456.1262
 20
5815024.0782
 30
44.7501
  0
VERTEX
  8
0
 70
32
 10
320455.1598
 20
5815028.7239
 30
44.7207
  0
VERTEX
  8
0
 70
32
 10
320454.3787
 20
5815033.4037
 30
44.7468
  0
VERTEX
  8
0
 70
32
 10
320453.7656
 20
5815035.3626
 30
44.7996
  0
VERTEX
  8
0
 70
32
 10
320453.2574
 20
5815035.6302
 30
44.8704
  0
VERTEX
  8
0
 70
32
 10
320452.0725
 20
5815035.3155
 30
45.0183
  0
VERTEX
  8
0
 70
32
 10
320450.0073
 20
5815032.2511
 30
45.2860
  0
VERTEX
  8
0
 70
32
 10
320442.8239
 20
5815019.0815
 30
45.7926
  0
VERTEX
  8
0
 70
32
 10
320432.0257
 20
5814999.3038
 30
45.5575
  0
VERTEX
  8
0
 70
32
 10
320420.8386
 20
5814978.7374
 30
43.3986
  0
VERTEX
  8
0
 70
32
 10
320419.0886
 20
5814974.9350
 30
43.2014
  0
VERTEX
  8
0
 70
32
 10
320417.9274
 20
5814971.1384
 30
43.1017
  0
VERTEX
  8
0
 70
32
 10
320443.1624
 20
5815027.9458
 30
45.7794
  0
VERTEX
  8
0
 70
32
 10
320443.5807
 20
5815024.2545
 30
45.7900
  0
VERTEX
  8
0
 70
32
 10
320442.4298
 20
5815020.3344
 30
45.7999
  0
VERTEX
  8
0
 70
32
 10
320431.3242
 20
5814999.5315
 30
45.5416
  0
VERTEX
  8
0
 70
32
 10
320416.0760
 20
5814971.8961
 30
43.0726
  0
VERTEX
  8
0
 70
32
 10
320417.8449
 20
5814988.7525
 30
43.3540
  0
VERTEX
  8
0
 70
32
 10
320423.6138
 20
5815012.1581
 30
43.6765
  0
VERTEX
  8
0
 70
32
 10
320431.7345
 20
5815035.0600
 30
43.9754
  0
VERTEX
  8
0
 70
32
 10
320417.0028
 20
5815036.1463
 30
43.6790
  0
VERTEX
  8
0
 70
32
 10
320436.2985
 20
5815051.5988
 30
44.0794
  0
VERTEX
  8
0
 70
32
 10
320440.9695
 20
5815066.1597
 30
44.2368
  0
VERTEX
  8
0
 70
32
 10
320443.9690
 20
5815073.1842
 30
44.3293
  0
VERTEX
  8
0
 70
32
 10
320442.4794
 20
5815062.5580
 30
44.4286
  0
VERTEX
  8
0
 70
32
 10
320444.3773
 20
5815054.4090
 30
45.6420
  0
VERTEX
  8
0
 70
32
 10
320445.2631
 20
5815051.4441
 30
45.8111
  0
VERTEX
  8
0
 70
32
 10
320453.1153
 20
5815038.9077
 30
44.8161
  0
SEQEND
  0
ENDSEC
  0
EOF
